<svg width="488" height="80" viewBox="0 0 488 80" fill="none" xmlns="http://www.w3.org/2000/svg">
<path d="M18.512 31.5256L53.5601 9.536C60.1937 5.3744 68.8001 10.1592 68.8001 18.0104V61.9896C68.8001 69.84 60.1937 74.6256 53.5601 70.464L18.512 48.4744C12.2728 44.5592 12.2728 35.4408 18.512 31.5256Z" fill="#1EA5FC"/>
<path d="M61.4879 31.5256L26.44 9.536C19.8064 5.3744 11.2 10.1592 11.2 18.0104V61.9896C11.2 69.84 19.8064 74.6256 26.44 70.464L61.4879 48.4744C67.7271 44.5592 67.7271 35.4408 61.4879 31.5256Z" fill="#7B6EF6"/>
<path d="M138.88 20.448V65.376H127.936V38.432L117.888 65.376H109.056L98.944 38.368V65.376H88V20.448H100.928L113.536 51.552L126.016 20.448H138.88Z" fill="#7B6EF6"/>
<path d="M143.294 47.456C143.294 43.7867 143.977 40.5653 145.342 37.792C146.75 35.0187 148.649 32.8853 151.038 31.392C153.427 29.8987 156.094 29.152 159.038 29.152C161.555 29.152 163.753 29.664 165.63 30.688C167.55 31.712 169.022 33.056 170.046 34.72V29.664H180.99V65.376H170.046V60.32C168.979 61.984 167.486 63.328 165.566 64.352C163.689 65.376 161.491 65.888 158.974 65.888C156.073 65.888 153.427 65.1413 151.038 63.648C148.649 62.112 146.75 59.9573 145.342 57.184C143.977 54.368 143.294 51.1253 143.294 47.456ZM170.046 47.52C170.046 44.7893 169.278 42.6347 167.742 41.056C166.249 39.4773 164.414 38.688 162.238 38.688C160.062 38.688 158.206 39.4773 156.67 41.056C155.177 42.592 154.43 44.7253 154.43 47.456C154.43 50.1867 155.177 52.3627 156.67 53.984C158.206 55.5627 160.062 56.352 162.238 56.352C164.414 56.352 166.249 55.5627 167.742 53.984C169.278 52.4053 170.046 50.2507 170.046 47.52Z" fill="#7B6EF6"/>
<path d="M193.132 25.952C191.212 25.952 189.633 25.3973 188.396 24.288C187.201 23.136 186.604 21.728 186.604 20.064C186.604 18.3573 187.201 16.9493 188.396 15.84C189.633 14.688 191.212 14.112 193.132 14.112C195.009 14.112 196.545 14.688 197.74 15.84C198.977 16.9493 199.596 18.3573 199.596 20.064C199.596 21.728 198.977 23.136 197.74 24.288C196.545 25.3973 195.009 25.952 193.132 25.952ZM198.572 29.664V65.376H187.628V29.664H198.572Z" fill="#7B6EF6"/>
<path d="M216.167 18.016V65.376H205.223V18.016H216.167Z" fill="#7B6EF6"/>
<path d="M256.482 46.944C256.482 47.968 256.418 49.0347 256.29 50.144H231.521C231.692 52.3627 232.396 54.0693 233.633 55.264C234.913 56.416 236.471 56.992 238.306 56.992C241.036 56.992 242.935 55.84 244.002 53.536H255.65C255.052 55.8827 253.964 57.9947 252.386 59.872C250.85 61.7493 248.908 63.2213 246.562 64.288C244.215 65.3547 241.591 65.888 238.689 65.888C235.191 65.888 232.076 65.1413 229.346 63.648C226.615 62.1547 224.482 60.0213 222.946 57.248C221.41 54.4747 220.642 51.232 220.642 47.52C220.642 43.808 221.388 40.5653 222.882 37.792C224.417 35.0187 226.551 32.8853 229.282 31.392C232.012 29.8987 235.148 29.152 238.689 29.152C242.146 29.152 245.217 29.8773 247.906 31.328C250.594 32.7787 252.684 34.848 254.178 37.536C255.714 40.224 256.482 43.36 256.482 46.944ZM245.282 44.064C245.282 42.1867 244.642 40.6933 243.362 39.584C242.082 38.4747 240.482 37.92 238.562 37.92C236.727 37.92 235.17 38.4533 233.89 39.52C232.652 40.5867 231.884 42.1013 231.586 44.064H245.282Z" fill="#7B6EF6"/>
<path d="M300.393 20.448V65.376H289.449V46.88H272.425V65.376H261.481V20.448H272.425V38.048H289.449V20.448H300.393Z" fill="#1EA5FC"/>
<path d="M340.678 46.944C340.678 47.968 340.614 49.0347 340.486 50.144H315.718C315.889 52.3627 316.593 54.0693 317.83 55.264C319.11 56.416 320.667 56.992 322.502 56.992C325.233 56.992 327.131 55.84 328.198 53.536H339.846C339.249 55.8827 338.161 57.9947 336.582 59.872C335.046 61.7493 333.105 63.2213 330.758 64.288C328.411 65.3547 325.787 65.888 322.886 65.888C319.387 65.888 316.273 65.1413 313.542 63.648C310.811 62.1547 308.678 60.0213 307.142 57.248C305.606 54.4747 304.838 51.232 304.838 47.52C304.838 43.808 305.585 40.5653 307.078 37.792C308.614 35.0187 310.747 32.8853 313.478 31.392C316.209 29.8987 319.345 29.152 322.886 29.152C326.342 29.152 329.414 29.8773 332.102 31.328C334.79 32.7787 336.881 34.848 338.374 37.536C339.91 40.224 340.678 43.36 340.678 46.944ZM329.478 44.064C329.478 42.1867 328.838 40.6933 327.558 39.584C326.278 38.4747 324.678 37.92 322.758 37.92C320.923 37.92 319.366 38.4533 318.086 39.52C316.849 40.5867 316.081 42.1013 315.782 44.064H329.478Z" fill="#1EA5FC"/>
<path d="M356.115 35.616C357.395 33.6533 358.995 32.1173 360.915 31.008C362.835 29.856 364.969 29.28 367.315 29.28V40.864H364.307C361.577 40.864 359.529 41.4613 358.163 42.656C356.798 43.808 356.115 45.856 356.115 48.8V65.376H345.171V29.664H356.115V35.616Z" fill="#1EA5FC"/>
<path d="M404.93 46.944C404.93 47.968 404.866 49.0347 404.738 50.144H379.97C380.141 52.3627 380.845 54.0693 382.082 55.264C383.362 56.416 384.92 56.992 386.754 56.992C389.485 56.992 391.384 55.84 392.45 53.536H404.098C403.501 55.8827 402.413 57.9947 400.834 59.872C399.298 61.7493 397.357 63.2213 395.01 64.288C392.664 65.3547 390.04 65.888 387.138 65.888C383.64 65.888 380.525 65.1413 377.794 63.648C375.064 62.1547 372.93 60.0213 371.394 57.248C369.858 54.4747 369.09 51.232 369.09 47.52C369.09 43.808 369.837 40.5653 371.33 37.792C372.866 35.0187 375 32.8853 377.73 31.392C380.461 29.8987 383.597 29.152 387.138 29.152C390.594 29.152 393.666 29.8773 396.354 31.328C399.042 32.7787 401.133 34.848 402.626 37.536C404.162 40.224 404.93 43.36 404.93 46.944ZM393.73 44.064C393.73 42.1867 393.09 40.6933 391.81 39.584C390.53 38.4747 388.93 37.92 387.01 37.92C385.176 37.92 383.618 38.4533 382.338 39.52C381.101 40.5867 380.333 42.1013 380.034 44.064H393.73Z" fill="#1EA5FC"/>
<path d="M431.248 65.376L420.368 50.4V65.376H409.424V18.016H420.368V44.192L431.184 29.664H444.688L429.84 47.584L444.816 65.376H431.248Z" fill="#1EA5FC"/>
<path d="M463.962 65.888C460.464 65.888 457.306 65.1413 454.49 63.648C451.717 62.1547 449.52 60.0213 447.898 57.248C446.32 54.4747 445.53 51.232 445.53 47.52C445.53 43.8507 446.341 40.6293 447.962 37.856C449.584 35.04 451.802 32.8853 454.618 31.392C457.434 29.8987 460.592 29.152 464.09 29.152C467.589 29.152 470.746 29.8987 473.562 31.392C476.378 32.8853 478.597 35.04 480.218 37.856C481.84 40.6293 482.65 43.8507 482.65 47.52C482.65 51.1893 481.818 54.432 480.154 57.248C478.533 60.0213 476.293 62.1547 473.434 63.648C470.618 65.1413 467.461 65.888 463.962 65.888ZM463.962 56.416C466.053 56.416 467.824 55.648 469.274 54.112C470.768 52.576 471.514 50.3787 471.514 47.52C471.514 44.6613 470.789 42.464 469.338 40.928C467.93 39.392 466.181 38.624 464.09 38.624C461.957 38.624 460.186 39.392 458.778 40.928C457.37 42.4213 456.666 44.6187 456.666 47.52C456.666 50.3787 457.349 52.576 458.714 54.112C460.122 55.648 461.872 56.416 463.962 56.416Z" fill="#1EA5FC"/>
</svg>
